<svg xmlns="http://www.w3.org/2000/svg" viewBox="0 0 1200 630" role="img" aria-labelledby="title desc"><title id="title">Yones Alizai Portfolio</title><desc id="desc">Yones Alizai, Informatiker und Softwareentwickler mit Schwerpunkten in KI, Systemintegration und Automatisierung.</desc><defs><linearGradient id="bg" x1="0" x2="1"><stop stop-color="#08111f"/><stop offset="1" stop-color="#132d51"/></linearGradient></defs><rect width="1200" height="630" fill="url(#bg)"/><g opacity=".16" stroke="#8ab7f5"><path d="M0 105h1200M0 210h1200M0 315h1200M0 420h1200M0 525h1200M150 0v630M300 0v630M450 0v630M600 0v630M750 0v630M900 0v630M1050 0v630"/></g><g fill="none" stroke="#5de1e6" stroke-width="3" opacity=".7"><path d="M735 135 920 250l144-87M735 135l-50 278 208 77 171-327M920 250l-27 240M715 413l205-163"/></g><g fill="#122b48" stroke="#5b8cff" stroke-width="3"><circle cx="735" cy="135" r="14"/><circle cx="920" cy="250" r="14"/><circle cx="1064" cy="163" r="14"/><circle cx="715" cy="413" r="14"/><circle cx="893" cy="490" r="14"/></g><text x="84" y="205" fill="#5de1e6" font-family="monospace" font-size="22" letter-spacing="5">INFORMATIK · SOFTWAREENTWICKLUNG</text><text x="80" y="305" fill="#f3f7ff" font-family="system-ui, sans-serif" font-size="78" font-weight="800">Yones Alizai</text><text x="84" y="370" fill="#a8b5c9" font-family="system-ui, sans-serif" font-size="31">Informatiker &amp; Softwareentwickler</text><text x="84" y="470" fill="#5de1e6" font-family="monospace" font-size="22">KI · SYSTEMINTEGRATION · AUTOMATISIERUNG</text></svg>
