<svg xmlns="http://www.w3.org/2000/svg" viewBox="0 0 720 430" role="img" aria-labelledby="title desc"><title id="title">IT Integrator App Oberfläche</title><desc id="desc">Abstrakte Desktop-Oberfläche mit Systemstatus, Werkzeugmodulen und Geräteübersicht.</desc><rect width="720" height="430" rx="22" fill="#0b192c"/><rect x="42" y="44" width="636" height="342" rx="16" fill="#101f34" stroke="#2b4668"/><rect x="42" y="44" width="636" height="43" rx="16" fill="#162b47"/><circle cx="70" cy="65" r="6" fill="#5de1e6"/><circle cx="91" cy="65" r="6" fill="#5b8cff"/><circle cx="112" cy="65" r="6" fill="#71819a"/><rect x="70" y="118" width="160" height="226" rx="10" fill="#0d1a2c" stroke="#2b4668"/><rect x="254" y="118" width="178" height="98" rx="10" fill="#142944"/><rect x="452" y="118" width="178" height="98" rx="10" fill="#142944"/><rect x="254" y="244" width="376" height="100" rx="10" fill="#0d1a2c" stroke="#2b4668"/><g fill="#5de1e6"><circle cx="285" cy="151" r="7"/><circle cx="483" cy="151" r="7"/><circle cx="285" cy="277" r="7"/></g><g fill="#a8b5c9" font-family="monospace" font-size="14"><text x="94" y="145">TOOLS</text><text x="278" y="151">SYSTEM STATUS</text><text x="476" y="151">DEVICES</text><text x="278" y="277">WORKFLOWS</text><text x="94" y="188">module_01</text><text x="94" y="218">module_02</text><text x="94" y="248">module_03</text><text x="94" y="278">module_04</text></g></svg>
