<svg xmlns="http://www.w3.org/2000/svg" viewBox="0 0 720 430" role="img" aria-labelledby="title desc"><title id="title">Protocolbridge Datenfluss</title><desc id="desc">Datenfluss von Industrieprotokollen über Gateway und API zu einem Dashboard.</desc><rect width="720" height="430" rx="22" fill="#0b192c"/><g fill="#10243d" stroke="#5b8cff" stroke-width="2"><rect x="42" y="65" width="150" height="96" rx="14"/><rect x="285" y="65" width="150" height="96" rx="14"/><rect x="528" y="65" width="150" height="96" rx="14"/><rect x="285" y="265" width="150" height="96" rx="14"/></g><g fill="none" stroke="#5de1e6" stroke-width="3"><path d="M192 113h93M435 113h93M360 161v102"/><path d="m273 106 12 7-12 7M516 106l12 7-12 7M353 251l7 12 7-12"/></g><g fill="#f3f7ff" font-family="monospace" font-size="16" text-anchor="middle"><text x="117" y="101">INPUT</text><text x="117" y="128" fill="#a8b5c9" font-size="13">Modbus · OPC UA · MQTT</text><text x="360" y="101">GATEWAY</text><text x="360" y="128" fill="#a8b5c9" font-size="13">Verarbeitung</text><text x="603" y="101">API / DATA</text><text x="603" y="128" fill="#a8b5c9" font-size="13">REST · Storage</text><text x="360" y="301">DASHBOARD</text><text x="360" y="328" fill="#a8b5c9" font-size="13">Echtzeitdaten</text></g><text x="42" y="395" fill="#71819a" font-family="monospace" font-size="13">PROTOCOLBRIDGE / IIOT_DATA_FLOW</text></svg>
