<svg xmlns="http://www.w3.org/2000/svg" viewBox="0 0 720 430" role="img" aria-labelledby="title desc"><title id="title">QuantzAI Datenanalyse</title><desc id="desc">Abstrakte Datenkurve, Modellknoten und Analyseoberfläche ohne Finanzwerte.</desc><rect width="720" height="430" rx="22" fill="#0b192c"/><rect x="28" y="30" width="664" height="370" rx="14" fill="#101f34" stroke="#2b4668"/><path d="M58 92h604M58 154h604M58 216h604M58 278h604M58 340h604" stroke="#2b4668" opacity=".5"/><path d="M58 318c55-12 61-105 123-71s59-82 121-36 67-11 110-25 61 51 105 21 63-48 145-94" fill="none" stroke="#5de1e6" stroke-width="4"/><path d="M58 318c55-12 61-105 123-71s59-82 121-36 67-11 110-25 61 51 105 21 63-48 145-94V340H58Z" fill="#5b8cff" opacity=".12"/><g fill="#122b48" stroke="#5b8cff" stroke-width="2"><circle cx="181" cy="247" r="7"/><circle cx="302" cy="211" r="7"/><circle cx="412" cy="186" r="7"/><circle cx="517" cy="207" r="7"/></g><g fill="#a8b5c9" font-family="monospace" font-size="13"><text x="58" y="64">QUANTZAI / RESEARCH_VIEW</text><text x="530" y="64">MODEL.NODES</text><text x="58" y="378">TIME_SERIES</text><text x="535" y="378">VALIDATION</text></g></svg>
